<?xml version="1.0" standalone="no"?>
<!DOCTYPE svg PUBLIC "-//W3C//DTD SVG 20010904//EN"
 "http://www.w3.org/TR/2001/REC-SVG-20010904/DTD/svg10.dtd">
<svg version="1.0" xmlns="http://www.w3.org/2000/svg"
 width="541.000000pt" height="405.000000pt" viewBox="0 0 541.000000 405.000000"
 preserveAspectRatio="xMidYMid meet">

<g transform="translate(0.000000,405.000000) scale(0.100000,-0.100000)"
fill="#000000" stroke="none">
<path d="M2089 3992 c-26 -20 -51 -44 -57 -53 -5 -8 -67 -159 -136 -335 -182
-457 -227 -568 -236 -577 -4 -5 -24 15 -45 43 -21 28 -39 49 -42 47 -7 -8 26
-79 54 -115 l26 -35 -48 7 c-26 4 -54 10 -61 13 -20 7 -19 -105 2 -156 8 -21
14 -56 12 -77 -3 -35 0 -39 21 -42 13 -2 35 5 50 16 14 10 43 25 63 32 55 20
70 4 63 -69 -44 -430 -57 -596 -57 -701 0 -219 31 -423 94 -620 l30 -94 62
129 c75 156 208 375 404 663 127 186 172 243 157 200 -2 -7 -36 -184 -75 -393
-66 -351 -163 -768 -242 -1033 -16 -57 -28 -106 -25 -109 12 -11 403 -32 602
-32 189 -1 563 14 571 21 1 2 -13 57 -32 123 -139 482 -214 917 -231 1329 l-6
149 49 -33 c120 -82 265 -264 375 -474 51 -98 164 -354 209 -476 l28 -75 11
55 c79 392 89 500 100 981 5 235 12 432 15 438 4 7 27 3 68 -12 l62 -22 81
-260 c90 -289 217 -667 335 -1000 90 -251 109 -299 116 -292 3 3 5 36 5 74 -1
100 -151 618 -367 1260 -46 139 -84 268 -84 286 0 19 -3 62 -6 96 -6 53 -11
64 -32 75 -22 12 -34 39 -84 207 -71 235 -128 447 -128 474 0 16 39 119 77
203 4 8 -13 6 -51 -9 -47 -17 -62 -19 -88 -10 -40 14 -127 14 -184 0 -53 -14
-56 -25 -8 -34 20 -3 48 -11 62 -16 26 -10 24 -12 -47 -49 -41 -22 -78 -43
-83 -48 -6 -6 -1 -26 12 -52 20 -40 22 -41 43 -26 49 35 101 58 139 59 l41 2
88 -345 c49 -190 91 -354 95 -366 5 -19 -8 -27 -118 -74 -68 -28 -164 -74
-215 -100 -104 -54 -149 -67 -283 -79 -100 -9 -100 -9 -298 52 -42 13 -42 14
-24 30 19 17 19 19 -4 83 -13 36 -24 70 -24 76 0 24 347 -2 495 -37 l30 -8
-30 33 c-36 39 -134 110 -194 140 -24 12 -89 32 -145 44 -100 22 -101 23 -121
62 -14 28 -20 58 -20 104 1 75 14 105 110 245 79 117 94 169 70 252 -13 43
-20 54 -26 43 -5 -8 -24 -40 -42 -70 -31 -53 -63 -81 -211 -185 -70 -49 -96
-90 -180 -280 l-66 -150 -83 -53 c-45 -30 -128 -76 -183 -104 -86 -43 -113
-51 -175 -56 -71 -5 -73 -6 -44 -18 63 -27 121 -26 295 1 94 15 174 24 178 20
4 -4 -8 -34 -26 -67 -26 -48 -29 -59 -15 -53 10 4 29 10 41 13 24 5 24 4 8
-26 -18 -34 -48 -58 -123 -95 l-51 -27 -144 26 c-192 34 -203 37 -278 84 -36
22 -99 60 -142 85 -42 25 -83 56 -91 69 -16 23 -15 24 40 35 48 9 130 48 121
56 -2 2 -31 -4 -66 -12 -34 -9 -65 -13 -68 -10 -4 3 32 88 79 189 47 101 120
257 163 348 139 298 164 360 164 405 0 50 -10 105 -19 105 -3 -1 -27 -18 -52
-38z m678 -1216 c49 -1 53 -3 87 -48 20 -26 36 -49 36 -53 0 -3 -21 5 -47 18
-67 34 -101 40 -135 26 -34 -14 -33 -34 4 -57 25 -15 28 -14 66 11 47 31 48
31 111 -78 47 -79 49 -89 21 -80 -24 8 -24 8 -5 -80 8 -39 15 -85 15 -103 0
-27 -3 -32 -18 -28 -16 6 -17 -4 -14 -137 l3 -142 -31 33 c-34 37 -31 40 -54
-68 -9 -41 -21 -82 -26 -90 -10 -16 -12 -13 -25 45 -7 30 -8 30 -25 -20 -17
-49 -18 -50 -28 -23 -6 14 -17 54 -23 87 l-13 61 -28 -27 -28 -27 -1 25 c-1
13 -4 78 -8 144 l-6 120 -27 -45 c-16 -25 -28 -37 -28 -28 0 32 32 231 41 255
10 27 3 29 -22 7 -34 -31 28 113 83 194 l30 44 -32 -17 c-17 -9 -34 -14 -37
-11 -3 3 14 28 37 56 31 37 47 49 59 44 9 -4 39 -8 68 -8z"/>
<path d="M2326 624 c-3 -9 -6 -24 -6 -35 0 -18 8 -19 105 -19 58 0 105 4 105
9 0 5 -4 21 -10 35 -9 25 -12 26 -99 26 -72 0 -90 -3 -95 -16z"/>
<path d="M2900 604 c-6 -14 -10 -30 -10 -35 0 -5 48 -9 110 -9 62 0 110 4 110
9 0 5 -4 21 -10 35 -9 25 -12 26 -100 26 -88 0 -91 -1 -100 -26z"/>
<path d="M5102 299 c5 -138 10 -170 23 -158 5 5 45 268 45 295 0 10 -11 14
-36 14 l-37 0 5 -151z"/>
<path d="M252 412 c13 -15 41 -66 61 -114 31 -73 37 -100 39 -164 1 -64 -2
-79 -17 -90 -25 -19 -19 -21 42 -16 46 3 51 6 38 19 -11 10 -15 37 -15 93 0
71 4 89 41 172 22 51 48 101 56 111 15 16 13 17 -28 17 -35 -1 -40 -3 -26 -11
25 -15 20 -45 -18 -119 l-33 -65 -36 75 c-38 79 -44 105 -23 113 6 3 -14 5
-47 5 l-58 1 24 -27z"/>
<path d="M858 424 c12 -8 22 -22 22 -30 0 -8 6 -14 13 -14 9 0 8 -3 -2 -9 -20
-13 -11 -254 12 -297 17 -32 34 -44 53 -37 7 2 2 21 -13 50 -21 42 -23 60 -23
181 0 112 3 139 17 154 15 17 14 18 -43 18 -56 0 -57 -1 -36 -16z"/>
<path d="M1081 419 c20 -20 21 -30 17 -163 -3 -152 -14 -188 -60 -205 -15 -5
-18 -10 -9 -15 7 -5 21 0 32 10 40 36 50 74 56 219 3 77 10 148 15 158 8 15 4
17 -32 17 l-40 0 21 -21z"/>
<path d="M1690 428 c0 -4 9 -9 20 -13 22 -7 33 -49 28 -115 l-3 -45 -68 -3
c-93 -4 -101 4 -93 88 4 44 12 69 23 78 14 10 6 12 -48 11 -46 0 -58 -3 -43
-9 12 -5 25 -13 28 -19 4 -6 7 -83 7 -172 0 -138 -2 -164 -17 -180 -17 -18
-15 -19 36 -19 51 0 52 1 37 18 -13 14 -17 38 -17 101 l0 82 78 -3 77 -3 0
-83 c0 -71 -3 -86 -19 -98 -18 -13 -15 -14 32 -14 29 0 52 5 52 10 0 6 -4 10
-9 10 -18 0 -24 45 -23 193 1 123 4 153 17 167 15 17 13 18 -39 22 -31 1 -56
0 -56 -4z"/>
<path d="M3555 420 c-10 -35 -17 -90 -11 -90 3 0 12 16 20 35 16 37 42 49 92
43 l29 -3 3 -97 c2 -66 7 -98 14 -98 9 0 9 -3 0 -12 -7 -7 -12 -38 -12 -70 0
-45 -4 -61 -21 -77 -21 -19 -21 -19 48 -23 37 -2 72 0 78 4 5 5 2 8 -6 8 -9 0
-23 8 -33 19 -14 16 -16 40 -14 182 l3 164 47 3 c46 3 53 -1 82 -42 12 -18 13
-18 10 5 -1 13 -3 32 -3 41 -1 15 -19 17 -161 20 -136 3 -161 1 -165 -12z"/>
<path d="M4052 432 c-62 -3 -62 -3 -42 -20 21 -17 22 -25 21 -182 -1 -132 -5
-168 -17 -181 -14 -16 -11 -17 41 -21 31 -1 62 0 68 4 8 5 6 8 -5 8 -38 0 -47
38 -47 188 0 155 7 192 38 192 51 0 81 -41 81 -110 0 -47 -27 -80 -66 -80 -14
0 -23 -4 -19 -10 8 -13 51 -13 76 0 42 23 63 109 38 163 -19 42 -62 55 -167
49z"/>
<path d="M2118 415 c17 -8 32 -21 32 -29 0 -8 6 -17 13 -19 10 -4 10 -6 0 -6
-10 -1 -13 -38 -13 -151 0 -125 -3 -152 -15 -156 -8 -4 -15 -10 -15 -16 0 -11
189 -7 196 4 3 5 -15 8 -39 8 -70 0 -73 9 -67 195 5 158 5 160 30 172 22 11
14 13 -65 12 -86 0 -89 0 -57 -14z"/>
<path d="M2428 423 c45 -9 54 -41 53 -190 -2 -93 -6 -147 -15 -165 -17 -34
-13 -38 39 -38 50 0 60 8 39 31 -13 15 -16 43 -15 169 1 83 4 157 7 164 3 7
15 18 27 24 17 8 2 10 -68 10 -49 0 -80 -3 -67 -5z"/>
<path d="M2858 418 c12 -6 22 -15 22 -19 0 -4 7 -15 16 -23 8 -9 11 -16 5 -16
-7 0 -11 -48 -11 -143 0 -113 -3 -147 -16 -165 -15 -21 -14 -22 20 -22 37 0
44 8 25 27 -15 15 -21 107 -12 203 l9 85 101 -153 c57 -84 106 -153 110 -155
4 -1 9 8 11 21 2 13 -2 22 -9 22 -10 0 -10 3 -1 12 8 8 12 57 12 157 0 120 3
147 17 163 15 17 14 18 -30 18 l-47 0 20 -20 c18 -18 20 -33 20 -152 0 -72 -3
-128 -7 -124 -5 3 -51 71 -103 149 -94 141 -95 142 -135 144 -36 2 -38 1 -17
-9z"/>
<path d="M1304 411 c-32 -14 -57 -53 -41 -63 9 -6 9 -8 0 -8 -8 0 -13 -13 -13
-33 0 -44 35 -75 123 -111 37 -16 72 -37 78 -48 14 -25 3 -87 -17 -95 -7 -3
-14 -9 -14 -14 0 -33 65 30 73 70 9 42 -10 96 -38 115 -13 9 -53 27 -87 39
-78 29 -102 61 -78 105 13 23 23 27 64 30 45 3 50 1 87 -38 l39 -41 0 36 c0
21 -5 35 -12 35 -9 0 -8 4 2 10 12 8 10 10 -10 10 -14 0 -50 2 -80 5 -30 2
-65 1 -76 -4z"/>
<path d="M4581 409 c-29 -12 -52 -40 -46 -56 2 -7 0 -13 -5 -13 -15 0 -12 -37
5 -70 14 -26 79 -65 142 -84 27 -9 63 -52 63 -76 0 -10 -10 -29 -21 -44 -23
-30 -19 -47 6 -26 24 20 45 65 45 98 0 53 -39 95 -110 119 -58 20 -110 59
-110 82 0 5 9 20 21 35 16 20 29 26 61 26 44 0 93 -28 103 -60 11 -34 23 -12
15 25 -4 19 -5 36 -1 36 12 3 -85 18 -114 18 -16 0 -41 -5 -54 -10z"/>
<path d="M4855 405 c-34 -19 -47 -35 -40 -52 2 -7 0 -13 -5 -13 -14 0 -12 -34
2 -65 13 -28 54 -57 110 -74 61 -20 88 -47 88 -89 0 -23 -8 -44 -22 -59 -17
-19 -18 -23 -6 -23 31 0 68 58 68 105 0 61 -33 97 -112 124 -34 11 -69 28 -80
37 -23 22 -23 66 0 87 40 36 141 8 157 -43 4 -11 11 -20 16 -20 13 0 11 57 -2
66 -8 4 -7 9 2 15 10 6 7 9 -11 8 -14 0 -50 2 -80 6 -41 5 -63 2 -85 -10z"/>
<path d="M635 405 c-5 -2 -23 -6 -39 -10 -41 -9 -103 -75 -111 -119 -18 -94
32 -166 130 -186 31 -6 61 -10 68 -7 6 2 -6 7 -28 10 -123 20 -172 214 -71
281 34 22 104 20 142 -3 37 -23 74 -93 74 -142 0 -49 -30 -101 -70 -122 -34
-19 -35 -19 -5 -12 17 3 40 13 53 21 28 19 64 75 57 92 -2 6 0 12 5 12 17 0
11 52 -11 97 -14 29 -33 50 -58 62 -35 18 -116 33 -136 26z"/>
<path d="M3320 404 c-82 -29 -126 -69 -145 -132 -17 -58 24 -135 89 -169 18
-10 56 -17 91 -17 112 -1 180 59 184 159 2 61 -26 109 -79 136 -37 19 -115 32
-140 23z m111 -41 c40 -34 59 -79 59 -142 0 -141 -180 -176 -247 -48 -9 19
-16 56 -16 88 0 88 38 128 125 129 36 0 53 -6 79 -27z"/>
<path d="M1891 267 c-35 -72 -70 -140 -79 -149 -14 -17 -13 -18 9 -18 13 0 35
-3 49 -5 25 -5 25 -5 3 6 -13 7 -23 18 -23 26 0 22 29 73 43 74 94 7 101 5
122 -33 16 -30 18 -42 9 -56 -11 -17 -7 -18 41 -18 35 1 48 4 38 10 -8 4 -21
23 -29 42 -8 19 -19 34 -25 34 -5 0 -8 4 -4 9 5 9 -68 187 -84 203 -4 5 -35
-52 -70 -125z m79 17 c11 -25 20 -50 20 -55 0 -5 -23 -9 -51 -9 -37 0 -50 3
-46 13 31 78 41 97 48 97 6 0 19 -21 29 -46z"/>
<path d="M4273 287 c-29 -62 -53 -116 -53 -121 0 -5 -11 -23 -24 -40 l-23 -31
43 -1 c41 -1 42 0 22 15 -19 16 -19 19 -5 54 10 22 23 37 34 38 100 6 111 2
128 -38 11 -25 12 -40 5 -47 -18 -18 -11 -21 36 -17 26 2 42 6 37 10 -6 3 -18
21 -27 39 -9 17 -21 32 -27 32 -6 0 -7 5 -4 10 6 10 -75 210 -85 210 -3 -1
-29 -51 -57 -113z m67 3 c31 -60 27 -70 -25 -70 -33 0 -45 4 -45 15 0 14 39
95 46 95 2 0 13 -18 24 -40z"/>
<path d="M1244 120 c3 -14 6 -28 6 -32 0 -5 5 -8 10 -8 15 0 12 24 -6 46 -15
18 -15 18 -10 -6z"/>
<path d="M4520 125 c0 -36 12 -65 27 -65 9 0 11 5 6 13 -4 6 -8 17 -9 24 -1 6
-7 19 -13 30 -10 17 -10 17 -11 -2z"/>
<path d="M4806 95 c6 -57 9 -61 47 -70 34 -9 38 16 5 34 -13 6 -31 28 -40 49
l-18 37 6 -50z"/>
<path d="M2406 105 c-3 -9 -21 -25 -41 -36 -19 -12 -35 -25 -35 -30 0 -16 46
-10 63 9 20 22 39 72 28 72 -5 0 -11 -7 -15 -15z"/>
<path d="M2724 99 c-26 -29 -52 -42 -99 -49 l-40 -6 27 -14 c44 -21 101 0 123
46 20 42 16 52 -11 23z"/>
<path d="M1260 55 c0 -9 6 -12 15 -9 8 4 12 10 9 15 -8 14 -24 10 -24 -6z"/>
</g>
</svg>
